<svg width="35" height="34" viewBox="0 0 35 34" fill="none" xmlns="http://www.w3.org/2000/svg">
    <path d="M20.0229 29.75C19.7665 30.1794 19.3985 30.5358 18.9557 30.7835C18.513 31.0313 18.011 31.1617 17.5 31.1617C16.989 31.1617 16.487 31.0313 16.0443 30.7835C15.6015 30.5358 15.2335 30.1794 14.9771 29.75M26.25 11.3334C26.25 9.07903 25.3281 6.91703 23.6872 5.32297C22.0462 3.72891 19.8206 2.83337 17.5 2.83337C15.1794 2.83337 12.9538 3.72891 11.3128 5.32297C9.67187 6.91703 8.75 9.07903 8.75 11.3334C8.75 21.25 4.375 24.0834 4.375 24.0834H30.625C30.625 24.0834 26.25 21.25 26.25 11.3334Z" stroke="#1E1E1E" stroke-width="3" stroke-linecap="round" stroke-linejoin="round"/>
</svg>
