<svg width="58" height="56" viewBox="0 0 58 56" fill="none" xmlns="http://www.w3.org/2000/svg">
    <path d="M16.9167 46.803H41.0834" stroke="#34BC51" stroke-width="3" stroke-linecap="round" stroke-linejoin="round"/>
    <path d="M24.1667 46.8031C37.4584 41.0739 26.1001 32.1364 31.4167 23.8864" stroke="#34BC51" stroke-width="3" stroke-linecap="round" stroke-linejoin="round"/>
    <path d="M22.9584 22.5114C25.6167 24.3447 27.3084 27.5531 28.5167 30.9906C23.6834 31.9072 20.0584 31.9072 16.9167 30.3031C14.0167 28.9281 11.3584 25.9489 9.66675 20.6781C16.4334 19.5322 20.3001 20.6781 22.9584 22.5114Z" stroke="#34BC51" stroke-width="3" stroke-linecap="round" stroke-linejoin="round"/>
    <path d="M34.075 14.7197C32.2325 17.4504 31.3056 20.6463 31.4166 23.8864C36.0083 23.6572 39.3916 22.5114 41.8083 20.6781C44.225 18.3864 45.675 15.4072 45.9166 10.1364C39.3916 10.3656 36.25 12.4281 34.075 14.7197Z" stroke="#34BC51" stroke-width="3" stroke-linecap="round" stroke-linejoin="round"/>
</svg>
