<svg width="158" height="56" viewBox="0 0 158 56" fill="none" xmlns="http://www.w3.org/2000/svg">
    <path d="M16.9167 46.8031H41.0834" stroke="#34BC51" stroke-width="3" stroke-linecap="round" stroke-linejoin="round"/>
    <path d="M24.1667 46.803C37.4584 41.0739 26.1 32.1364 31.4167 23.8864" stroke="#34BC51" stroke-width="3" stroke-linecap="round" stroke-linejoin="round"/>
    <path d="M22.9584 22.5113C25.6167 24.3447 27.3084 27.553 28.5167 30.9905C23.6834 31.9072 20.0584 31.9072 16.9167 30.303C14.0167 28.928 11.3584 25.9488 9.66669 20.678C16.4334 19.5322 20.3 20.678 22.9584 22.5113Z" stroke="#34BC51" stroke-width="3" stroke-linecap="round" stroke-linejoin="round"/>
    <path d="M34.075 14.7197C32.2325 17.4503 31.3056 20.6463 31.4166 23.8864C36.0083 23.6572 39.3916 22.5114 41.8083 20.678C44.225 18.3864 45.675 15.4072 45.9166 10.1364C39.3916 10.3655 36.25 12.428 34.075 14.7197Z" stroke="#34BC51" stroke-width="3" stroke-linecap="round" stroke-linejoin="round"/>
    <path d="M60.7543 40.324C58.4503 40.324 56.5903 39.916 55.1743 39.1C53.7823 38.26 53.0743 37.144 53.0503 35.752C53.0503 35.152 53.2903 34.648 53.7703 34.24C54.2743 33.832 55.0663 33.616 56.1463 33.592C56.3623 34.648 56.8663 35.464 57.6583 36.04C58.4503 36.592 59.4103 36.868 60.5383 36.868C61.7623 36.868 62.7223 36.712 63.4183 36.4C64.1143 36.088 64.4623 35.62 64.4623 34.996C64.4623 34.42 64.1743 33.94 63.5983 33.556C63.0463 33.172 61.9423 32.788 60.2863 32.404C58.4863 31.972 57.0823 31.54 56.0743 31.108C55.0903 30.676 54.3583 30.124 53.8783 29.452C53.3983 28.78 53.1583 27.892 53.1583 26.788C53.1583 25.252 53.8063 24.016 55.1023 23.08C56.3983 22.144 58.1743 21.676 60.4303 21.676C62.6143 21.676 64.4263 22.072 65.8663 22.864C67.3063 23.632 68.0263 24.664 68.0263 25.96C68.0263 26.608 67.7863 27.088 67.3063 27.4C66.8263 27.712 66.0343 27.88 64.9303 27.904C64.6903 26.944 64.2343 26.224 63.5623 25.744C62.8903 25.264 61.9423 25.024 60.7183 25.024C59.8063 25.024 59.0143 25.18 58.3423 25.492C57.6943 25.804 57.3703 26.212 57.3703 26.716C57.3703 27.244 57.6463 27.652 58.1983 27.94C58.7503 28.228 59.7103 28.516 61.0783 28.804C63.7663 29.38 65.7103 30.148 66.9103 31.108C68.1343 32.068 68.7463 33.376 68.7463 35.032C68.7463 36.64 68.0263 37.924 66.5863 38.884C65.1703 39.844 63.2263 40.324 60.7543 40.324ZM72.0736 24.772C72.0736 23.884 72.4216 23.152 73.1176 22.576C73.8136 21.976 74.8456 21.676 76.2136 21.676V23.62C75.8056 24.172 75.5776 24.496 75.5296 24.592L75.6736 24.736C76.4416 23.728 77.2816 22.972 78.1936 22.468C79.1296 21.94 80.2816 21.676 81.6496 21.676C82.9696 21.676 84.1336 21.952 85.1416 22.504C86.1736 23.032 86.9776 23.788 87.5536 24.772C88.1296 25.756 88.4176 26.884 88.4176 28.156V33.844C88.4176 35.14 88.0936 36.28 87.4456 37.264C86.8216 38.248 85.9576 39.004 84.8536 39.532C83.7496 40.06 82.5016 40.324 81.1096 40.324C80.2216 40.324 79.2976 40.144 78.3376 39.784C77.4016 39.4 76.6096 38.884 75.9616 38.236L75.8176 38.416C75.9856 38.656 76.2496 38.908 76.6096 39.172V44.5C76.6096 46.516 75.0976 47.524 72.0736 47.524V24.772ZM80.2456 36.436C81.4216 36.436 82.3336 36.184 82.9816 35.68C83.6296 35.176 83.9536 34.468 83.9536 33.556V28.444C83.9536 27.508 83.6296 26.8 82.9816 26.32C82.3576 25.816 81.4456 25.564 80.2456 25.564C79.1656 25.564 78.2776 25.828 77.5816 26.356C76.8856 26.86 76.5376 27.496 76.5376 28.264V33.736C76.5376 34.48 76.8736 35.116 77.5456 35.644C78.2416 36.172 79.1416 36.436 80.2456 36.436ZM101.359 25.564C99.9432 25.564 98.7912 25.948 97.9032 26.716C97.0152 27.46 96.5712 28.396 96.5712 29.524V37.588C96.5712 38.548 96.2112 39.244 95.4912 39.676C94.7712 40.108 93.6432 40.324 92.1072 40.324V25.132C92.1072 24.028 92.4552 23.176 93.1512 22.576C93.8712 21.976 94.9512 21.676 96.3912 21.676V23.8C96.0312 24.208 95.7432 24.604 95.5272 24.988L95.7432 25.132C97.2552 22.828 99.1512 21.676 101.431 21.676C102.463 21.676 103.243 21.952 103.771 22.504C104.299 23.032 104.563 23.704 104.563 24.52C104.563 25.144 104.395 25.672 104.059 26.104C103.411 25.744 102.511 25.564 101.359 25.564ZM112.915 40.324C111.355 40.324 109.939 40.048 108.667 39.496C107.419 38.92 106.435 38.128 105.715 37.12C104.995 36.112 104.635 34.972 104.635 33.7V28.624C104.635 27.328 104.983 26.152 105.679 25.096C106.399 24.04 107.383 23.212 108.631 22.612C109.879 21.988 111.307 21.676 112.915 21.676C114.523 21.676 115.951 21.988 117.199 22.612C118.471 23.212 119.455 24.04 120.151 25.096C120.871 26.152 121.231 27.328 121.231 28.624V33.7C121.231 34.972 120.859 36.112 120.115 37.12C119.395 38.128 118.399 38.92 117.127 39.496C115.879 40.048 114.475 40.324 112.915 40.324ZM112.915 36.472C114.115 36.472 115.051 36.196 115.723 35.644C116.419 35.092 116.767 34.348 116.767 33.412V28.84C116.767 27.856 116.419 27.064 115.723 26.464C115.051 25.84 114.115 25.528 112.915 25.528C111.739 25.528 110.803 25.84 110.107 26.464C109.411 27.064 109.063 27.856 109.063 28.84V33.412C109.063 34.348 109.411 35.092 110.107 35.644C110.803 36.196 111.739 36.472 112.915 36.472ZM139.931 36.832C139.931 37.96 139.571 38.824 138.851 39.424C138.155 40.024 137.087 40.324 135.647 40.324V38.164C135.959 37.804 136.247 37.408 136.511 36.976L136.295 36.832C134.759 39.16 132.695 40.324 130.103 40.324C128.879 40.324 127.775 40.048 126.791 39.496C125.831 38.92 125.063 38.128 124.487 37.12C123.935 36.112 123.659 34.972 123.659 33.7V24.412C123.659 23.428 124.019 22.732 124.739 22.324C125.483 21.892 126.611 21.676 128.123 21.676V33.376C128.123 34.312 128.411 35.056 128.987 35.608C129.563 36.16 130.391 36.436 131.471 36.436C132.671 36.436 133.631 36.064 134.351 35.32C135.095 34.552 135.467 33.604 135.467 32.476V24.412C135.467 23.428 135.827 22.732 136.547 22.324C137.267 21.892 138.395 21.676 139.931 21.676V36.832ZM152.163 40.324C150.219 40.324 148.779 39.76 147.843 38.632C146.907 37.504 146.439 36.052 146.439 34.276V25.348H142.731C142.731 24.22 142.947 23.38 143.379 22.828C143.811 22.276 144.387 22 145.107 22H146.511V19.012C146.511 18.028 146.871 17.332 147.591 16.924C148.311 16.492 149.403 16.276 150.867 16.276V22H155.655C155.655 23.2 155.427 24.064 154.971 24.592C154.515 25.096 153.783 25.348 152.775 25.348H150.939V34.096C150.939 34.936 151.095 35.536 151.407 35.896C151.743 36.256 152.307 36.436 153.099 36.436C153.939 36.436 154.779 36.208 155.619 35.752C155.859 35.968 156.051 36.244 156.195 36.58C156.339 36.892 156.411 37.216 156.411 37.552C156.411 38.272 156.039 38.92 155.295 39.496C154.551 40.048 153.507 40.324 152.163 40.324Z" fill="#36C87A"/>
</svg>
