<svg width="33" height="31" viewBox="0 0 33 31" fill="none" xmlns="http://www.w3.org/2000/svg">
    <path d="M9.625 25.8333H23.375" stroke="black" stroke-width="2" stroke-linecap="round" stroke-linejoin="round"/>
    <path d="M13.75 25.8334C21.3125 22.6042 14.85 17.5667 17.875 12.9167" stroke="black" stroke-width="2" stroke-linecap="round" stroke-linejoin="round"/>
    <path d="M13.0625 12.1418C14.575 13.1751 15.5375 14.9834 16.225 16.9209C13.475 17.4376 11.4125 17.4376 9.625 16.5334C7.975 15.7584 6.4625 14.0793 5.5 11.1084C9.35 10.4626 11.55 11.1084 13.0625 12.1418Z" stroke="black" stroke-width="2" stroke-linecap="round" stroke-linejoin="round"/>
    <path d="M19.3874 7.75008C18.3391 9.28918 17.8118 11.0905 17.8749 12.9167C20.4874 12.7876 22.4124 12.1417 23.7874 11.1084C25.1624 9.81675 25.9874 8.13758 26.1249 5.16675C22.4124 5.29591 20.6249 6.45841 19.3874 7.75008Z" stroke="black" stroke-width="2" stroke-linecap="round" stroke-linejoin="round"/>
</svg>
